#!OML:ASF E:\VariousWalksJay\Project 1\Capture day 1\Session 1\Actor2.ASF
:FULLY-SPECIFIED
:DEGREES
657
root -0.13781 13.9489 21.7945 10.1299 -49.9378 -0.975702
lowerback 41.5894 -1.64112 2.2487
upperback 19.0403 -2.91983 -4.09861
thorax 1.07214 -1.55777 -4.5289
lowerneck 3.04048 2.21133 5.75159
upperneck -23.7848 2.70067 -3.74584
head -7.65956 1.00143 -2.3959
rclavicle 3.89618e-014 -3.57812e-014
rhumerus -3.22674 30.1214 -68.1759
rradius 111.892
rwrist 1.85095
rhand -35.0089 -8.68074
rfingers 7.12502
rthumb -8.15337 -38.5034
lclavicle 3.89618e-014 -3.57812e-014
lhumerus 61.045 -1.95919 38.605
lradius 84.9588
lwrist 52.7569
lhand -34.8941 12.9818
lfingers 7.12502
lthumb -8.04259 42.8088
rfemur -80.662 8.81047 23.7426
rtibia 48.9138
rfoot -18.6268 -4.13889
rtoes -30.1131
lfemur -53.6404 8.08901 -33.1754
ltibia 83.4878
lfoot -35.3393 14.3634
ltoes -10.0547
658
root -0.203433 13.9132 21.8602 9.93347 -49.7638 -0.790524
lowerback 41.4909 -1.64881 2.23558
upperback 19.1085 -2.93291 -4.12833
thorax 1.17321 -1.55952 -4.55463
lowerneck 3.16524 2.15485 5.74555
upperneck -23.9106 2.66275 -3.57879
head -7.73016 0.965736 -2.34148
rclavicle 2.14687e-014 9.14409e-015
rhumerus -3.13203 30.2057 -68.2832
rradius 112.111
rwrist 1.79061
rhand -35.0269 -8.86556
rfingers 7.12502
rthumb -8.17071 -38.6876
lclavicle 2.14687e-014 9.14409e-015
lhumerus 61.3265 -1.70768 38.317
lradius 84.7132
lwrist 52.7131
lhand -34.8102 13.0167
lfingers 7.12502
lthumb -7.96159 42.8468
rfemur -79.8038 8.67984 23.8945
rtibia 46.2493
rfoot -18.6236 -3.72852
rtoes -30.1099
lfemur -53.5045 8.19579 -33.3072
ltibia 84.1433
lfoot -35.519 14.1123
ltoes -10.7352
659
root -0.271527 13.8809 21.9265 9.73957 -49.5876 -0.623485
lowerback 41.3902 -1.65172 2.22385
upperback 19.1723 -2.9391 -4.1515
thorax 1.27111 -1.55831 -4.57638
lowerneck 3.28743 2.09517 5.74088
upperneck -24.0179 2.61895 -3.42096
head -7.79425 0.928212 -2.28931
rclavicle -3.81667e-014 8.15017e-014
rhumerus -3.13541 30.3041 -68.4433
rradius 112.305
rwrist 1.73927
rhand -35.0511 -9.02284
rfingers 7.12502
rthumb -8.19406 -38.844
lclavicle -3.81667e-014 8.15017e-014
lhumerus 61.5767 -1.50801 38.0102
lradius 84.4951
lwrist 52.6567
lhand -34.7048 13.0502
lfingers 7.12502
lthumb -7.85986 42.8841
rfemur -78.9616 8.60212 23.9486
rtibia 43.8028
rfoot -18.6199 -3.46521
rtoes -30.0678
lfemur -53.3436 8.37253 -33.4346
ltibia 84.7745
lfoot -35.6734 13.8313
ltoes -11.4298
660
root -0.341822 13.8522 21.994 9.53265 -49.4073 -0.447075
lowerback 41.2766 -1.6539 2.20627
upperback 19.2329 -2.94575 -4.17423
thorax 1.36928 -1.55766 -4.59474
lowerneck 3.41369 2.03449 5.73649
upperneck -24.1088 2.57204 -3.2754
head -7.85345 0.890712 -2.24059
rclavicle 2.54444e-014 -4.81059e-014
rhumerus -3.22937 30.4201 -68.6548
rradius 112.462
rwrist 1.70516
rhand -35.0987 -9.13751
rfingers 7.12502
rthumb -8.24007 -38.9568
lclavicle 2.54444e-014 -4.81059e-014
lhumerus 61.7911 -1.36095 37.6861
lradius 84.3043
lwrist 52.5908
lhand -34.591 13.0911
lfingers 7.12502
lthumb -7.75 42.9291
rfemur -78.1472 8.54984 23.9145
rtibia 41.5896
rfoot -18.6049 -3.33146
rtoes -29.8422
lfemur -53.1518 8.60415 -33.58
ltibia 85.3687
lfoot -35.8091 13.5345
ltoes -12.093
661
root -0.414109 13.8272 22.0629 9.31834 -49.2275 -0.260407
lowerback 41.1391 -1.65247 2.18209
upperback 19.29 -2.94941 -4.19281
thorax 1.47114 -1.55614 -4.6068
lowerneck 3.5447 1.97075 5.7285
upperneck -24.1805 2.51675 -3.15046
head -7.907 0.851976 -2.19706
rclavicle 0 5.1684e-015
rhumerus -3.41497 30.5542 -68.911
rradius 112.578
rwrist 1.69874
rhand -35.1754 -9.19314
rfingers 7.12502
rthumb -8.31406 -39.0095
lclavicle 0 5.1684e-015
lhumerus 61.9684 -1.27113 37.3671
lradius 84.1401
lwrist 52.5369
lhand -34.4516 13.1382
lfingers 7.12502
lthumb -7.61544 42.9811
rfemur -77.3675 8.53416 23.7864
rtibia 39.6092
rfoot -18.5761 -3.3566
rtoes -29.532
lfemur -52.9314 8.88672 -33.7428
ltibia 85.9195
lfoot -35.9261 13.2273
ltoes -12.6888
662
root -0.488095 13.8062 22.134 9.10547 -49.0478 -0.0687947
lowerback 40.8515 -1.64784 2.16424
upperback 19.4631 -2.94835 -4.21267
thorax 1.5779 -1.55399 -4.61188
lowerneck 3.68169 1.90528 5.69844
upperneck -24.2348 2.4543 -3.03903
head -7.956 0.813634 -2.15337
rclavicle 3.10104e-014 -3.18055e-014
rhumerus -3.68543 30.7075 -69.2001
rradius 112.643
rwrist 1.73087
rhand -35.297 -9.19164
rfingers 7.12502
rthumb -8.43143 -39.0033
lclavicle 3.10104e-014 -3.18055e-014
lhumerus 62.1032 -1.24242 37.0664
lradius 84.0037
lwrist 52.4954
lhand -34.3017 13.1855
lfingers 7.12502
lthumb -7.47075 43.0335
rfemur -76.6241 8.52627 23.6161
rtibia 37.8574
rfoot -18.5351 -3.48658
rtoes -29.1356
lfemur -52.6764 9.20849 -33.92
ltibia 86.4189
lfoot -36.0193 12.9513
ltoes -13.2897
663
root -0.56406 13.7893 22.2068 8.90514 -48.88 0.116635
lowerback 40.6528 -1.64047 2.1388
upperback 19.5114 -2.9432 -4.21815
thorax 1.68759 -1.54895 -4.61326
lowerneck 3.81789 1.8382 5.6533
upperneck -24.265 2.38432 -2.94452
head -7.9968 0.775362 -2.11161
rclavicle 1.59028e-015 -8.07066e-014
rhumerus -4.03846 30.8792 -69.5281
rradius 112.648
rwrist 1.80855
rhand -35.4638 -9.12719
rfingers 7.12502
rthumb -8.59234 -38.9323
lclavicle 1.59028e-015 -8.07066e-014
lhumerus 62.1906 -1.27867 36.7902
lradius 83.899
lwrist 52.4722
lhand -34.1362 13.2216
lfingers 7.12502
lthumb -7.31106 43.0753
rfemur -75.9118 8.53113 23.4326
rtibia 36.3164
rfoot -18.4905 -3.68178
rtoes -28.6746
lfemur -52.3852 9.57017 -34.0922
ltibia 86.8631
lfoot -36.0964 12.6803
ltoes -13.8594
664
root -0.641565 13.7764 22.2825 8.7313 -48.6937 0.296358
lowerback 40.4059 -1.65115 2.13765
upperback 19.5545 -2.9494 -4.21819
thorax 1.80387 -1.54747 -4.61865
lowerneck 3.94572 1.77092 5.58443
upperneck -24.2688 2.3089 -2.85854
head -8.02735 0.738174 -2.06755
rclavicle -3.33958e-014 6.91771e-014
rhumerus -4.46966 31.0684 -69.8904
rradius 112.593
rwrist 1.93088
rhand -35.6685 -8.99753
rfingers 7.12502
rthumb -8.78992 -38.7945
lclavicle -3.33958e-014 6.91771e-014
lhumerus 62.2226 -1.38775 36.537
lradius 83.8346
lwrist 52.4523
lhand -33.9896 13.2437
lfingers 7.12502
lthumb -7.16956 43.1023
rfemur -75.2405 8.49911 23.2719
rtibia 34.9627
rfoot -18.4489 -3.89475
rtoes -28.2538
lfemur -52.0677 9.92163 -34.2535
ltibia 87.2514
lfoot -36.149 12.4242
ltoes -14.4361
665
root -0.720726 13.7673 22.361 8.58183 -48.4869 0.476796
lowerback 40.1103 -1.68159 2.15663
upperback 19.5945 -2.97101 -4.21847
thorax 1.92922 -1.5514 -4.63086
lowerneck 4.06396 1.70626 5.49886
upperneck -24.2523 2.2337 -2.77643
head -8.04924 0.703508 -2.02138
rclavicle -9.46215e-014 -5.52621e-014
rhumerus -4.96918 31.2695 -70.2931
rradius 112.472
rwrist 2.09973
rhand -35.9012 -8.81143
rfingers 7.12502
rthumb -9.01449 -38.5988
lclavicle -9.46215e-014 -5.52621e-014
lhumerus 62.1984 -1.56348 36.3147
lradius 83.8147
lwrist 52.4486
lhand -33.8166 13.2391
lfingers 7.12502
lthumb -7.00249 43.1032
rfemur -74.6059 8.42457 23.1378
rtibia 33.7656
rfoot -18.4229 -4.09357
rtoes -27.8719
lfemur -51.7249 10.2477 -34.4021
ltibia 87.5823
lfoot -36.1757 12.1757
ltoes -15.0426
